{"title":"The Mountie 2011 DVDrip English Klam","uid":6558018,"size":1139786296,"categoryP":"video","categoryS":"movies","magnet":"?xt=urn:btih:b932a3b1ed6a6eba2bbc77669c7aa83cd09b9730&amp;dn=The+Mountie+2011+DVDrip+English+Klam&amp;tr=udp%3A%2F%2Ftracker.openbittorrent.com%3A80&amp;tr=udp%3A%2F%2Fopen.demonii.com%3A1337&amp;tr=udp%3A%2F%2Ftracker.coppersurfer.tk%3A6969&amp;tr=udp%3A%2F%2Fexodus.desync.com%3A6969","seeders":1,"leechers":0,"uploader":"Klambake","files":-1,"time":1311352133,"description":"With: Andrew W. Walker, Jessica ParÃƒÂ© and George Buza\n\nWade Grayling heeft de duistere kant van het leven reeds gezien. Na een veelbelovende start bij de North West Mounted Police wordt dit abrupt afgebroken op een avond in 1893 in Winnipeg, waarna hij wordt overgeplaatst naar een verlaten uithoek van de Yukon, waar hij een stuk land moet observeren. Maar in plaats van een verlaten gebied treft hij daar de leider aan van een Russische gemeenschap van pioniers. Als hij een levenloos lichaam dat aan een boom is opgeknoopt ontdekt, is het duidelijk dat het dorp Merci behoefte heeft aan gerechtigheid...\n\nA lone Mountie has come to town to clean up the crime and corruption after finding an innocent man dead...\n\n------------------ Dutch Friends ------------------\nYou can find my Friends at: http://www.Film-Test.nl \n------ They got my dutchs subs ---- and more ------\n\nGeneral:\n\nComplete name                    : The Mountie\\The Mountie.avi\nFormat                           : AVI\nFormat/Info                      : Audio Video Interleave\nFile size                        : 1.06 GiB\nDuration                         : 1h 22mn\nOverall bit rate                 : 1 842 Kbps\n\nVideo:\n\nFormat                           : MPEG-4 Visual\nFormat profile                   : Simple@L3\nFormat settings, BVOP            : No\nFormat settings, QPel            : No\nFormat settings, GMC             : No warppoints\nFormat settings, Matrix          : Default (H.263)\nCodec ID                         : XVID\nCodec ID/Hint                    : XviD\nDuration                         : 1h 22mn\nBit rate                         : 1 384 Kbps\nWidth                            : 720 pixels\nHeight                           : 304 pixels\nDisplay aspect ratio             : 2.35:1\nFrame rate                       : 23.976 fps\nColor space                      : YUV\nChroma subsampling               : 4:2:0\nBit depth                        : 8 bits\nScan type                        : Progressive\nBits/(Pixel*Frame)               : 0.264\nStream size                      : 816 MiB (75%)\nWriting library                  : XviD 1.1.2 (UTC 2006-11-01)\n\nAudio:\n\nFormat                           : AC-3\nFormat/Info                      : Audio Coding 3\nMode extension                   : CM (complete main)\nCodec ID                         : 2000\nDuration                         : 1h 22mn\nBit rate mode                    : Constant\nBit rate                         : 448 Kbps\nChannel(s)                       : 6 channels\nChannel positions                : Front: L C R, Side: L R, LFE\nSampling rate                    : 48.0 KHz\nBit depth                        : 16 bits\nStream size                      : 264 MiB (24%)\nAlignment                        : Aligned on interleaves\nInterleave, duration             : 32 ms (0.77 video frame)\nInterleave, preload duration     : 160 ms\n\n","torrent":{"xt":"urn:btih:b932a3b1ed6a6eba2bbc77669c7aa83cd09b9730","amp;dn":"The+Mountie+2011+DVDrip+English+Klam","amp;tr":["udp%3A%2F%2Ftracker.openbittorrent.com%3A80","udp%3A%2F%2Fopen.demonii.com%3A1337","udp%3A%2F%2Ftracker.coppersurfer.tk%3A6969","udp%3A%2F%2Fexodus.desync.com%3A6969"],"infoHash":"b932a3b1ed6a6eba2bbc77669c7aa83cd09b9730","infoHashBuffer":{"type":"Buffer","data":[185,50,163,177,237,106,110,186,43,188,119,102,156,122,168,60,208,155,151,48]},"announce":[],"urlList":[]}}